<?xml version="1.0" standalone="no"?>
<!DOCTYPE svg PUBLIC "-//W3C//DTD SVG 20010904//EN"
 "http://www.w3.org/TR/2001/REC-SVG-20010904/DTD/svg10.dtd">
<svg version="1.0" xmlns="http://www.w3.org/2000/svg"
 width="1920.000000pt" height="463.000000pt" viewBox="0 0 1920.000000 463.000000"
 preserveAspectRatio="xMidYMid meet">

<g transform="translate(0.000000,463.000000) scale(0.100000,-0.100000)"
fill="#000000" stroke="none">
<path d="M671 4055 c-33 -88 -49 -216 -66 -535 -31 -572 -45 -766 -62 -850
l-18 -85 -56 -28 c-44 -22 -60 -37 -73 -65 -59 -136 -47 -385 39 -766 37 -166
52 -210 80 -240 25 -27 27 -27 130 -24 100 3 105 2 129 -22 14 -14 45 -61 69
-105 25 -44 81 -140 125 -213 85 -141 157 -294 212 -452 18 -53 44 -107 59
-122 l26 -28 839 0 839 0 71 41 c166 99 306 301 306 442 0 114 -23 119 -770
152 -414 19 -481 29 -603 91 l-37 19 274 220 c207 166 270 222 257 227 -9 4
-119 24 -246 43 -266 42 -336 59 -376 93 -52 43 -31 96 58 144 113 61 394 63
631 3 50 -12 92 -19 92 -15 0 19 -57 74 -118 115 -66 45 -189 89 -375 136
-105 26 -142 50 -126 81 43 81 233 184 374 203 90 12 125 58 110 145 -12 74
-57 123 -193 215 -70 47 -137 85 -150 85 -74 0 -273 -143 -346 -248 -17 -25
-31 -66 -41 -122 -17 -99 -48 -194 -99 -304 -43 -94 -77 -141 -120 -167 -66
-40 -98 -20 -196 126 -90 134 -146 189 -287 281 -87 58 -122 87 -144 122 -73
115 -17 207 228 372 197 134 213 148 213 179 0 16 -6 34 -14 40 -8 7 -72 16
-143 22 -136 10 -198 28 -206 60 -13 49 77 61 253 35 148 -23 246 -57 286
-102 l34 -37 74 5 c56 4 85 11 119 31 127 75 227 275 227 455 0 89 -19 134
-69 167 -55 36 -157 66 -241 72 -146 10 -536 -37 -719 -88 -41 -11 -93 -33
-115 -49 -28 -21 -52 -30 -78 -30 -56 0 -62 22 -48 188 6 74 9 136 7 139 -3 2
-15 -21 -26 -52z"/>
<path d="M2701 3939 c-117 -21 -182 -79 -233 -209 -25 -65 -30 -208 -9 -279
20 -68 49 -91 117 -91 93 0 129 17 220 101 58 54 100 84 136 97 29 11 53 26
53 33 0 19 -84 59 -126 59 -46 0 -69 8 -69 24 0 20 54 66 91 76 46 13 177 13
396 -2 101 -6 186 -9 190 -5 3 4 -1 13 -11 20 -22 16 -313 120 -427 153 -93
27 -245 38 -328 23z"/>
<path d="M8023 3460 c-46 -11 -80 -35 -100 -73 -17 -30 -18 -90 -18 -937 0
-821 2 -912 17 -979 65 -277 246 -404 554 -388 145 7 182 31 198 132 7 42 -5
120 -22 137 -5 5 -60 10 -123 11 -101 2 -119 5 -159 27 -24 14 -57 43 -72 65
-58 85 -58 78 -58 1022 0 929 1 901 -51 950 -13 12 -44 26 -69 32 -51 12 -53
12 -97 1z"/>
<path d="M10683 3460 c-43 -10 -79 -34 -100 -67 -17 -25 -18 -95 -21 -1103
l-2 -1075 22 -44 c30 -58 74 -81 153 -81 76 0 122 23 149 76 21 39 21 50 21
1114 0 1063 0 1075 -20 1110 -12 19 -34 42 -50 51 -37 21 -109 30 -152 19z"/>
<path d="M16695 3461 c-48 -12 -75 -30 -95 -64 -19 -30 -20 -54 -20 -474 0
-244 -3 -443 -7 -442 -5 0 -27 26 -49 58 -52 73 -167 152 -267 183 -62 20 -93
23 -227 23 -146 -1 -160 -2 -230 -29 -228 -87 -377 -263 -443 -524 -18 -75
-21 -113 -21 -277 1 -172 3 -199 27 -288 32 -119 102 -257 171 -334 264 -295
803 -279 1012 31 l34 51 0 -85 c0 -99 17 -143 69 -177 48 -32 144 -32 192 0
74 49 69 -32 69 1161 0 1057 0 1070 -20 1112 -30 60 -117 94 -195 75z m-372
-1014 c173 -86 257 -258 257 -527 0 -216 -51 -362 -164 -468 -80 -75 -148
-103 -264 -110 -193 -11 -341 77 -423 252 -42 89 -59 182 -59 321 0 144 18
234 64 332 43 90 99 151 175 191 80 43 120 51 237 49 94 -2 106 -5 177 -40z"/>
<path d="M14765 3450 c-75 -23 -123 -110 -111 -203 12 -106 79 -157 206 -157
141 0 205 57 205 185 0 126 -53 177 -189 182 -45 1 -95 -2 -111 -7z"/>
<path d="M4075 3435 c-54 -19 -92 -64 -100 -117 -3 -24 -5 -512 -3 -1085 3
-1034 3 -1042 24 -1069 41 -56 70 -69 147 -69 59 0 78 4 105 23 68 49 67 39
70 525 l3 437 207 0 c114 0 236 -5 271 -11 91 -14 163 -51 213 -109 26 -30
122 -196 238 -411 121 -224 209 -376 232 -400 44 -45 102 -64 171 -56 95 12
141 79 116 169 -16 60 -334 646 -387 714 -25 32 -71 73 -108 97 l-64 41 68 21
c225 71 379 234 427 450 26 116 17 323 -18 431 -79 240 -290 388 -602 424 -49
5 -288 10 -530 9 -353 0 -448 -3 -480 -14z m1026 -287 c159 -55 248 -147 278
-286 22 -106 9 -226 -34 -312 -29 -58 -112 -135 -172 -161 -104 -44 -150 -49
-510 -49 l-343 0 0 416 0 415 368 -4 c302 -3 375 -6 413 -19z"/>
<path d="M6195 2740 c-37 -12 -73 -44 -86 -77 -5 -14 -9 -246 -9 -549 0 -585
3 -619 65 -752 91 -194 286 -293 550 -279 194 10 342 86 445 229 l27 37 5 -77
c8 -131 53 -182 161 -182 72 0 116 20 142 63 19 31 20 55 20 762 0 813 3 774
-68 812 -43 23 -151 23 -194 0 -68 -37 -67 -29 -73 -567 -5 -430 -8 -490 -23
-530 -29 -72 -62 -123 -115 -172 -89 -83 -181 -114 -316 -105 -105 6 -156 28
-209 87 -82 91 -81 85 -87 680 -6 581 -4 571 -71 606 -38 19 -123 27 -164 14z"/>
<path d="M9335 2736 c-287 -67 -497 -274 -576 -568 -29 -106 -36 -315 -15
-436 71 -410 381 -651 836 -652 285 0 596 124 630 252 23 82 -26 148 -108 148
-34 0 -67 -11 -132 -45 -119 -61 -212 -85 -346 -92 -189 -10 -321 32 -423 134
-79 79 -124 182 -144 326 l-6 37 547 0 c501 0 550 2 582 18 54 27 62 52 55
167 -22 363 -176 593 -460 691 -71 25 -97 28 -230 31 -102 2 -169 -2 -210 -11z
m297 -227 c73 -15 163 -65 205 -113 61 -71 113 -209 113 -303 l0 -43 -445 0
-445 0 0 21 c0 43 33 146 67 212 38 73 118 154 184 188 87 44 218 59 321 38z"/>
<path d="M11435 2739 c-49 -14 -84 -58 -95 -121 -7 -37 -10 -296 -8 -740 l3
-683 23 -36 c32 -53 79 -72 163 -67 55 3 73 8 95 28 54 50 54 54 54 532 0 482
4 523 57 620 35 63 120 143 185 173 142 65 330 51 425 -30 51 -43 88 -127 102
-228 7 -46 11 -265 11 -535 0 -511 -1 -505 71 -544 50 -27 146 -25 190 5 72
48 70 28 66 637 -4 598 -4 604 -67 736 -61 127 -163 208 -309 245 -115 29
-321 23 -426 -12 -98 -33 -209 -111 -267 -187 l-48 -63 0 78 c-1 105 -23 156
-82 183 -46 21 -94 24 -143 9z"/>
<path d="M13567 2734 c-144 -32 -255 -91 -334 -176 -166 -182 -149 -481 36
-621 81 -62 169 -92 411 -142 290 -59 353 -86 391 -170 32 -70 19 -143 -37
-205 -123 -136 -475 -129 -755 16 -85 44 -128 43 -171 -6 -23 -24 -28 -40 -28
-79 0 -64 29 -105 105 -147 225 -125 599 -159 856 -78 91 29 213 106 259 163
124 158 127 405 6 539 -88 97 -182 135 -487 197 -224 46 -268 59 -320 96 -97
69 -91 244 11 318 70 50 131 66 260 66 142 0 197 -13 328 -77 106 -52 154 -61
195 -39 60 32 77 135 31 191 -32 37 -201 121 -294 145 -93 25 -370 30 -463 9z"/>
<path d="M17815 2736 c-287 -67 -497 -274 -576 -568 -29 -106 -36 -315 -15
-436 71 -410 381 -651 836 -652 285 0 596 124 630 252 23 82 -26 148 -108 148
-34 0 -67 -11 -132 -45 -119 -61 -212 -85 -346 -92 -189 -10 -321 32 -423 134
-79 79 -124 182 -144 326 l-6 37 547 0 c501 0 550 2 582 18 54 27 62 52 55
167 -22 363 -176 593 -460 691 -71 25 -97 28 -230 31 -102 2 -169 -2 -210 -11z
m297 -227 c73 -15 163 -65 205 -113 61 -71 113 -209 113 -303 l0 -43 -445 0
-445 0 0 21 c0 43 33 146 67 212 38 73 118 154 184 188 87 44 218 59 321 38z"/>
<path d="M14780 2722 c-50 -25 -77 -72 -85 -145 -3 -34 -5 -354 -3 -712 3
-627 4 -651 23 -689 28 -55 64 -78 129 -84 68 -5 132 22 161 70 19 32 20 53
20 753 0 702 0 721 -20 753 -39 66 -149 93 -225 54z"/>
</g>
</svg>
